<svg width="129" height="128" viewBox="0 0 129 128" fill="none" xmlns="http://www.w3.org/2000/svg">
<path d="M95.0066 0.093306H33.8306C15.4 0.093306 0.459961 15.0267 0.459961 33.4533V94.64C0.459961 113.067 15.4 128 33.8306 128H95.0066C113.437 128 128.376 113.067 128.376 94.64V33.4533C128.376 15.0267 113.437 0.093306 95.0066 0.093306Z" fill="#211D1D"/>
<path d="M68.2505 48.2933H36.9812L22.2759 23.04H53.5385L54.2665 24.28L68.2505 48.2933Z" fill="white"/>
<path d="M67.5545 55.04L38.4145 104.973L23.4745 78.3466H23.4705L23.4292 78.28L36.7039 55.04H67.5545Z" fill="white"/>
<path d="M101.194 104.88L77.7505 105.053L77.4985 104.627L62.1998 78.3466L61.9385 77.8933L73.7251 57.7067L85.7505 78.3466L88.8318 83.6533L101.194 104.88Z" fill="white"/>
<path d="M106.561 50.8134V50.8267L106.373 51.16L92.5466 76.7734L61.2612 23.04H90.5079C91.0012 23.8934 91.5719 24.8934 92.2186 26.0134C95.5519 31.8 100.799 40.8667 106.561 50.8134Z" fill="white"/>
</svg>
