<?xml version="1.0" encoding="UTF-8" standalone="no"?>
<!-- Created with Inkscape (http://www.inkscape.org/) -->

<svg
   version="1.1"
   id="svg2"
   width="7066.8931"
   height="3365.5601"
   viewBox="0 0 7066.8931 3365.5601"
   sodipodi:docname="Revoke Degital logo.eps"
   xmlns:inkscape="http://www.inkscape.org/namespaces/inkscape"
   xmlns:sodipodi="http://sodipodi.sourceforge.net/DTD/sodipodi-0.dtd"
   xmlns="http://www.w3.org/2000/svg"
   xmlns:svg="http://www.w3.org/2000/svg">
  <defs
     id="defs6">
    <clipPath
       clipPathUnits="userSpaceOnUse"
       id="clipPath144">
      <path
         d="M 16000,13241.7 H 0 v 12000 h 16000 z"
         id="path142" />
    </clipPath>
    <linearGradient
       x1="0"
       y1="0"
       x2="1"
       y2="0"
       gradientUnits="userSpaceOnUse"
       gradientTransform="matrix(16857.4,-12185.2,-12185.2,-16857.4,-541.768,25416)"
       spreadMethod="pad"
       id="linearGradient158">
      <stop
         style="stop-opacity:1;stop-color:#86cf41"
         offset="0"
         id="stop146" />
      <stop
         style="stop-opacity:1;stop-color:#100f0d"
         offset="0.304469"
         id="stop148" />
      <stop
         style="stop-opacity:1;stop-color:#100f0d"
         offset="0.501969"
         id="stop150" />
      <stop
         style="stop-opacity:1;stop-color:#100f0d"
         offset="0.656425"
         id="stop152" />
      <stop
         style="stop-opacity:1;stop-color:#50c064"
         offset="0.994413"
         id="stop154" />
      <stop
         style="stop-opacity:1;stop-color:#50c064"
         offset="1"
         id="stop156" />
    </linearGradient>
    <clipPath
       clipPathUnits="userSpaceOnUse"
       id="clipPath168">
      <path
         d="m 4411.16,19417.9 h -349.85 l -164.54,282.7 h 349.8 l 8.14,-14 z"
         id="path166" />
    </clipPath>
    <linearGradient
       x1="0"
       y1="0"
       x2="1"
       y2="0"
       gradientUnits="userSpaceOnUse"
       gradientTransform="matrix(514.392,0,0,-514.392,3896.77,19559.2)"
       spreadMethod="pad"
       id="linearGradient176">
      <stop
         style="stop-opacity:1;stop-color:#86cf41"
         offset="0"
         id="stop170" />
      <stop
         style="stop-opacity:1;stop-color:#50c064"
         offset="0.994413"
         id="stop172" />
      <stop
         style="stop-opacity:1;stop-color:#50c064"
         offset="1"
         id="stop174" />
    </linearGradient>
    <clipPath
       clipPathUnits="userSpaceOnUse"
       id="clipPath186">
      <path
         d="m 4403.37,19342.5 -326.02,-558.6 -167.16,297.8 h -0.05 l -0.45,0.8 148.51,260 z"
         id="path184" />
    </clipPath>
    <linearGradient
       x1="0"
       y1="0"
       x2="1"
       y2="0"
       gradientUnits="userSpaceOnUse"
       gradientTransform="matrix(493.685,0,0,-493.685,3909.69,19063.2)"
       spreadMethod="pad"
       id="linearGradient194">
      <stop
         style="stop-opacity:1;stop-color:#86cf41"
         offset="0"
         id="stop188" />
      <stop
         style="stop-opacity:1;stop-color:#50c064"
         offset="0.994413"
         id="stop190" />
      <stop
         style="stop-opacity:1;stop-color:#50c064"
         offset="1"
         id="stop192" />
    </linearGradient>
    <clipPath
       clipPathUnits="userSpaceOnUse"
       id="clipPath204">
      <path
         d="m 4779.76,18784.9 -262.3,-2.1 -2.82,4.9 -171.17,294 -2.92,5.1 131.88,225.9 134.54,-231 34.48,-59.3 z"
         id="path202" />
    </clipPath>
    <linearGradient
       x1="0"
       y1="0"
       x2="1"
       y2="0"
       gradientUnits="userSpaceOnUse"
       gradientTransform="matrix(439.205,0,0,-439.205,4340.55,19047.8)"
       spreadMethod="pad"
       id="linearGradient212">
      <stop
         style="stop-opacity:1;stop-color:#86cf41"
         offset="0"
         id="stop206" />
      <stop
         style="stop-opacity:1;stop-color:#50c064"
         offset="0.994413"
         id="stop208" />
      <stop
         style="stop-opacity:1;stop-color:#50c064"
         offset="1"
         id="stop210" />
    </linearGradient>
    <clipPath
       clipPathUnits="userSpaceOnUse"
       id="clipPath222">
      <path
         d="m 4839.81,19389.8 v -0.1 l -2.1,-3.8 -154.7,-286.5 -350.05,601.2 h 327.23 c 5.53,-9.6 11.91,-20.8 19.15,-33.4 37.29,-64.6 95.99,-166.1 160.47,-277.4 z"
         id="path220" />
    </clipPath>
    <linearGradient
       x1="0"
       y1="0"
       x2="1"
       y2="0"
       gradientUnits="userSpaceOnUse"
       gradientTransform="matrix(506.854,0,0,-506.854,4332.96,19400)"
       spreadMethod="pad"
       id="linearGradient230">
      <stop
         style="stop-opacity:1;stop-color:#86cf41"
         offset="0"
         id="stop224" />
      <stop
         style="stop-opacity:1;stop-color:#50c064"
         offset="0.994413"
         id="stop226" />
      <stop
         style="stop-opacity:1;stop-color:#50c064"
         offset="1"
         id="stop228" />
    </linearGradient>
    <clipPath
       clipPathUnits="userSpaceOnUse"
       id="clipPath270">
      <path
         d="m 23475.5,19417.9 h -349.8 l -164.6,282.7 h 349.8 l 8.2,-14 z"
         id="path268" />
    </clipPath>
    <linearGradient
       x1="0"
       y1="0"
       x2="1"
       y2="0"
       gradientUnits="userSpaceOnUse"
       gradientTransform="matrix(514.392,0,0,-514.392,22961.1,19559.2)"
       spreadMethod="pad"
       id="linearGradient278">
      <stop
         style="stop-opacity:1;stop-color:#86cf41"
         offset="0"
         id="stop272" />
      <stop
         style="stop-opacity:1;stop-color:#50c064"
         offset="0.994413"
         id="stop274" />
      <stop
         style="stop-opacity:1;stop-color:#50c064"
         offset="1"
         id="stop276" />
    </linearGradient>
    <clipPath
       clipPathUnits="userSpaceOnUse"
       id="clipPath288">
      <path
         d="m 23467.7,19342.5 -326,-558.6 -167.2,297.8 v 0 l -0.5,0.8 148.5,260 z"
         id="path286" />
    </clipPath>
    <linearGradient
       x1="0"
       y1="0"
       x2="1"
       y2="0"
       gradientUnits="userSpaceOnUse"
       gradientTransform="matrix(493.685,0,0,-493.685,22974,19063.2)"
       spreadMethod="pad"
       id="linearGradient296">
      <stop
         style="stop-opacity:1;stop-color:#86cf41"
         offset="0"
         id="stop290" />
      <stop
         style="stop-opacity:1;stop-color:#50c064"
         offset="0.994413"
         id="stop292" />
      <stop
         style="stop-opacity:1;stop-color:#50c064"
         offset="1"
         id="stop294" />
    </linearGradient>
    <clipPath
       clipPathUnits="userSpaceOnUse"
       id="clipPath306">
      <path
         d="m 23844.1,18784.9 -262.3,-2.1 -2.8,4.9 -171.2,294 -2.9,5.1 131.9,225.9 134.5,-231 34.5,-59.3 z"
         id="path304" />
    </clipPath>
    <linearGradient
       x1="0"
       y1="0"
       x2="1"
       y2="0"
       gradientUnits="userSpaceOnUse"
       gradientTransform="matrix(439.205,0,0,-439.205,23404.9,19047.8)"
       spreadMethod="pad"
       id="linearGradient314">
      <stop
         style="stop-opacity:1;stop-color:#86cf41"
         offset="0"
         id="stop308" />
      <stop
         style="stop-opacity:1;stop-color:#50c064"
         offset="0.994413"
         id="stop310" />
      <stop
         style="stop-opacity:1;stop-color:#50c064"
         offset="1"
         id="stop312" />
    </linearGradient>
    <clipPath
       clipPathUnits="userSpaceOnUse"
       id="clipPath324">
      <path
         d="m 23904.2,19389.8 v -0.1 l -2.1,-3.8 -154.7,-286.5 -350.1,601.2 h 327.2 c 5.6,-9.6 11.9,-20.8 19.2,-33.4 37.3,-64.6 96,-166.1 160.5,-277.4 z"
         id="path322" />
    </clipPath>
    <linearGradient
       x1="0"
       y1="0"
       x2="1"
       y2="0"
       gradientUnits="userSpaceOnUse"
       gradientTransform="matrix(506.854,0,0,-506.854,23397.3,19400)"
       spreadMethod="pad"
       id="linearGradient332">
      <stop
         style="stop-opacity:1;stop-color:#86cf41"
         offset="0"
         id="stop326" />
      <stop
         style="stop-opacity:1;stop-color:#50c064"
         offset="0.994413"
         id="stop328" />
      <stop
         style="stop-opacity:1;stop-color:#50c064"
         offset="1"
         id="stop330" />
    </linearGradient>
    <clipPath
       clipPathUnits="userSpaceOnUse"
       id="clipPath344">
      <path
         d="m 25213,19547.9 h -450.6 v -92.7 h 450.6 z"
         id="path342" />
    </clipPath>
    <linearGradient
       x1="0"
       y1="0"
       x2="1"
       y2="0"
       gradientUnits="userSpaceOnUse"
       gradientTransform="matrix(450.622,0,0,-450.622,24762.3,19501.6)"
       spreadMethod="pad"
       id="linearGradient352">
      <stop
         style="stop-opacity:1;stop-color:#86cf41"
         offset="0"
         id="stop346" />
      <stop
         style="stop-opacity:1;stop-color:#50c064"
         offset="0.994413"
         id="stop348" />
      <stop
         style="stop-opacity:1;stop-color:#50c064"
         offset="1"
         id="stop350" />
    </linearGradient>
    <clipPath
       clipPathUnits="userSpaceOnUse"
       id="clipPath370">
      <path
         d="m 27618.5,19547.9 h -450.7 v -92.7 h 450.7 z"
         id="path368" />
    </clipPath>
    <linearGradient
       x1="0"
       y1="0"
       x2="1"
       y2="0"
       gradientUnits="userSpaceOnUse"
       gradientTransform="matrix(450.622,0,0,-450.622,27167.8,19501.6)"
       spreadMethod="pad"
       id="linearGradient378">
      <stop
         style="stop-opacity:1;stop-color:#86cf41"
         offset="0"
         id="stop372" />
      <stop
         style="stop-opacity:1;stop-color:#50c064"
         offset="0.994413"
         id="stop374" />
      <stop
         style="stop-opacity:1;stop-color:#50c064"
         offset="1"
         id="stop376" />
    </linearGradient>
  </defs>
  <sodipodi:namedview
     id="namedview4"
     pagecolor="#ffffff"
     bordercolor="#000000"
     borderopacity="0.25"
     inkscape:showpageshadow="2"
     inkscape:pageopacity="0.0"
     inkscape:pagecheckerboard="0"
     inkscape:deskcolor="#d1d1d1" />
  <g
     id="g8"
     inkscape:groupmode="layer"
     inkscape:label="ink_ext_XXXXXX"
     transform="matrix(1.3333333,0,0,-1.3333333,0,3365.56)">
    <g
       id="g10"
       transform="scale(0.1)">
      <path
         d="m 35064.3,0 h -16000 v 12000 h 16000 V 0"
         style="fill:#ffffff;fill-opacity:1;fill-rule:nonzero;stroke:none"
         id="path12" />
      <path
         d="M 16000,0 H 0 V 12000 H 16000 V 0"
         style="fill:#ffffff;fill-opacity:1;fill-rule:nonzero;stroke:none"
         id="path14" />
      <path
         d="m 53001.7,13241.7 h -16000 v 12000 h 16000 v -12000"
         style="fill:#ffffff;fill-opacity:1;fill-rule:nonzero;stroke:none"
         id="path16" />
      <path
         d="m 52344.3,0 h -16000 v 12000 h 16000 V 0"
         style="fill:#ffffff;fill-opacity:1;fill-rule:nonzero;stroke:none"
         id="path18" />
      <path
         d="m 35064.3,13241.7 h -16000 v 12000 h 16000 v -12000"
         style="fill:#ffffff;fill-opacity:1;fill-rule:nonzero;stroke:none"
         id="path20" />
      <path
         d="M 4758.51,6124.3 H 4568.5 v -221.6 h 190.01 c 74.74,0 119.77,41.5 119.77,110.8 0,68.4 -45.03,110.8 -119.77,110.8 z m -61.24,-317.9 h -127.88 v -215.3 h -105.36 v 630.4 h 295.37 c 135.09,0 223.34,-82.8 223.34,-208 0,-104.5 -62.13,-179.2 -162.99,-200.8 l 191.81,-221.6 h -131.48 l -182.81,215.3"
         style="fill:#100f0d;fill-opacity:1;fill-rule:nonzero;stroke:none"
         id="path22" />
      <path
         d="m 5559.12,6221.5 h -463.78 v -95.4 h 463.78 v 95.4"
         style="fill:#100f0d;fill-opacity:1;fill-rule:nonzero;stroke:none"
         id="path24" />
      <path
         d="M 5199.8,5687.5 V 5864 h 344.01 v 93.7 h -448.47 v -366.6 h 469.18 v 96.4 H 5199.8"
         style="fill:#100f0d;fill-opacity:1;fill-rule:nonzero;stroke:none"
         id="path26" />
      <path
         d="M 6239.05,6221.5 5978.8,5591.1 h -113.47 l -261.16,630.4 h 113.47 l 106.26,-262 97.26,-245.9 204.43,507.9 h 113.46"
         style="fill:#100f0d;fill-opacity:1;fill-rule:nonzero;stroke:none"
         id="path28" />
      <path
         d="m 6795.63,5906.3 c 0,137.8 -88.26,231.5 -217.93,231.5 -130.58,0 -218.83,-93.7 -218.83,-231.5 0,-137.7 88.25,-231.4 218.83,-231.4 129.67,0 217.93,93.7 217.93,231.4 z m -543.03,0 c 0,196.3 130.58,328.7 325.1,328.7 193.61,0 324.19,-132.4 324.19,-328.7 0,-196.3 -130.58,-328.7 -324.19,-328.7 -194.52,0 -325.1,132.4 -325.1,328.7"
         style="fill:#100f0d;fill-opacity:1;fill-rule:nonzero;stroke:none"
         id="path30" />
      <path
         d="m 7379.22,5591.1 -271.97,282.8 v -282.8 h -106.26 v 630.4 h 106.26 v -269.2 l 251.26,269.2 h 136.88 l -288.17,-305.3 315.18,-325.1 h -143.18"
         style="fill:#100f0d;fill-opacity:1;fill-rule:nonzero;stroke:none"
         id="path32" />
      <path
         d="m 8034.85,6221.5 h -463.78 v -95.4 h 463.78 v 95.4"
         style="fill:#100f0d;fill-opacity:1;fill-rule:nonzero;stroke:none"
         id="path34" />
      <path
         d="M 7675.53,5687.5 V 5864 h 344.01 v 93.7 h -448.47 v -366.6 h 469.18 v 96.4 h -364.72"
         style="fill:#100f0d;fill-opacity:1;fill-rule:nonzero;stroke:none"
         id="path36" />
      <path
         d="m 8819.26,5906.3 c 0,137.8 -93.66,233.3 -227.84,233.3 h -146.79 v -466.5 h 146.79 c 135.08,0 227.84,95.5 227.84,233.2 z m 89.15,0 c 0,-188.2 -128.78,-315.2 -316.99,-315.2 h -234.14 v 630.4 h 234.14 c 188.21,0 316.99,-126.9 316.99,-315.2"
         style="fill:#100f0d;fill-opacity:1;fill-rule:nonzero;stroke:none"
         id="path38" />
      <path
         d="m 9012.89,6221.5 h 87.35 v -630.4 h -87.35 v 630.4"
         style="fill:#100f0d;fill-opacity:1;fill-rule:nonzero;stroke:none"
         id="path40" />
      <path
         d="m 9781.05,5941.5 v -259.4 c -70.23,-70.2 -151.28,-103.6 -251.25,-103.6 -194.51,0 -324.18,131.5 -324.18,327.8 0,192.8 135.07,327.8 329.59,327.8 89.16,0 171.11,-34.2 232.34,-96.3 l -56.73,-58.6 c -45.03,46 -110.77,72.1 -175.61,72.1 -142.28,0 -241.34,-100 -241.34,-245 0,-148.6 93.65,-244.9 235.93,-244.9 66.65,0 120.68,18 169.31,57.6 v 143.2 h -186.4 v 79.3 h 268.34"
         style="fill:#100f0d;fill-opacity:1;fill-rule:nonzero;stroke:none"
         id="path42" />
      <path
         d="m 9895.47,6221.5 h 87.35 v -630.4 h -87.35 v 630.4"
         style="fill:#100f0d;fill-opacity:1;fill-rule:nonzero;stroke:none"
         id="path44" />
      <path
         d="m 10570.9,6139.6 h -211.7 v -548.5 h -86.4 v 548.5 h -211.6 v 81.9 h 509.7 v -81.9"
         style="fill:#100f0d;fill-opacity:1;fill-rule:nonzero;stroke:none"
         id="path46" />
      <path
         d="m 10713.2,5810 h 281 l -140.5,320.6 z m 317,-81.1 h -353 l -60.4,-137.8 h -95.4 l 282.7,630.4 h 99.1 l 282.8,-630.4 h -95.5 l -60.3,137.8"
         style="fill:#100f0d;fill-opacity:1;fill-rule:nonzero;stroke:none"
         id="path48" />
      <path
         d="m 11259.9,6221.5 h 87.3 v -548.4 h 340.4 v -82 h -427.7 v 630.4"
         style="fill:#100f0d;fill-opacity:1;fill-rule:nonzero;stroke:none"
         id="path50" />
      <path
         d="m 4008.8,6386 h -458.82 c -138.23,0 -250.28,-112 -250.28,-250.2 v -458.9 c 0,-138.2 112.05,-250.2 250.28,-250.2 h 458.82 c 138.23,0 250.27,112 250.27,250.2 v 458.9 c 0,138.2 -112.04,250.2 -250.27,250.2"
         style="fill:#211d1d;fill-opacity:1;fill-rule:nonzero;stroke:none"
         id="path52" />
      <path
         d="m 3808.13,6024.5 h -234.52 l -110.29,189.4 h 234.47 l 5.46,-9.3 104.88,-180.1"
         style="fill:#ffffff;fill-opacity:1;fill-rule:nonzero;stroke:none"
         id="path54" />
      <path
         d="m 3802.91,5973.9 -218.55,-374.5 -112.05,199.7 h -0.03 l -0.31,0.5 99.56,174.3 h 231.38"
         style="fill:#ffffff;fill-opacity:1;fill-rule:nonzero;stroke:none"
         id="path56" />
      <path
         d="m 4055.21,5600.1 -175.83,-1.3 -1.89,3.2 -114.74,197.1 -1.96,3.4 88.4,151.4 90.19,-154.8 23.11,-39.8 92.72,-159.2"
         style="fill:#ffffff;fill-opacity:1;fill-rule:nonzero;stroke:none"
         id="path58" />
      <path
         d="m 4095.46,6005.6 v -0.1 l -1.41,-2.5 -103.7,-192.1 -234.64,403 h 219.35 c 3.7,-6.4 7.98,-13.9 12.83,-22.3 25,-43.4 64.35,-111.4 107.57,-186"
         style="fill:#ffffff;fill-opacity:1;fill-rule:nonzero;stroke:none"
         id="path60" />
      <path
         d="m 41412.9,19417.9 h -349.8 l -164.6,282.7 h 349.8 l 8.1,-14 156.5,-268.7"
         style="fill:#100f0d;fill-opacity:1;fill-rule:nonzero;stroke:none"
         id="path62" />
      <path
         d="m 41405.1,19342.5 -326,-558.6 -167.2,297.8 v 0 l -0.5,0.8 148.5,260 h 345.2"
         style="fill:#100f0d;fill-opacity:1;fill-rule:nonzero;stroke:none"
         id="path64" />
      <path
         d="m 41781.5,18784.9 -262.3,-2.1 -2.8,4.9 -171.2,294 -2.9,5.1 131.9,225.9 134.5,-231 34.5,-59.3 138.3,-237.5"
         style="fill:#100f0d;fill-opacity:1;fill-rule:nonzero;stroke:none"
         id="path66" />
      <path
         d="m 41841.6,19389.8 v -0.1 l -2.2,-3.8 -154.7,-286.5 -350,601.2 h 327.2 c 5.6,-9.6 11.9,-20.8 19.2,-33.4 37.3,-64.6 96,-166.1 160.5,-277.4"
         style="fill:#100f0d;fill-opacity:1;fill-rule:nonzero;stroke:none"
         id="path68" />
      <path
         d="m 42372.5,19453.4 h -184.7 v -215.2 h 184.7 c 72.6,0 116.3,40.3 116.3,107.6 0,66.5 -43.7,107.6 -116.3,107.6 z m -59.5,-308.8 h -124.3 v -209.1 h -102.4 v 612.4 h 287 c 131.3,0 217,-80.5 217,-202.1 0,-101.5 -60.3,-174.1 -158.3,-195.1 l 186.3,-215.2 h -127.7 l -177.6,209.1"
         style="fill:#100f0d;fill-opacity:1;fill-rule:nonzero;stroke:none"
         id="path70" />
      <path
         d="m 43150.4,19547.9 h -450.7 v -92.7 h 450.7 v 92.7"
         style="fill:#100f0d;fill-opacity:1;fill-rule:nonzero;stroke:none"
         id="path72" />
      <path
         d="m 42801.2,19029.1 v 171.5 h 334.3 v 91 h -435.8 v -356.1 h 455.9 v 93.6 h -354.4"
         style="fill:#100f0d;fill-opacity:1;fill-rule:nonzero;stroke:none"
         id="path74" />
      <path
         d="m 43811,19547.9 -252.9,-612.4 h -110.2 l -253.8,612.4 h 110.3 l 103.2,-254.6 94.5,-238.8 198.7,493.4 h 110.2"
         style="fill:#100f0d;fill-opacity:1;fill-rule:nonzero;stroke:none"
         id="path76" />
      <path
         d="m 44351.8,19241.7 c 0,133.9 -85.8,224.9 -211.8,224.9 -126.8,0 -212.6,-91 -212.6,-224.9 0,-133.9 85.8,-224.9 212.6,-224.9 126,0 211.8,91 211.8,224.9 z m -527.6,0 c 0,190.7 126.8,319.4 315.8,319.4 188.2,0 315,-128.7 315,-319.4 0,-190.7 -126.8,-319.4 -315,-319.4 -189,0 -315.8,128.7 -315.8,319.4"
         style="fill:#100f0d;fill-opacity:1;fill-rule:nonzero;stroke:none"
         id="path78" />
      <path
         d="m 44918.8,18935.5 -264.2,274.7 v -274.7 h -103.3 v 612.4 h 103.3 v -261.6 l 244.1,261.6 h 133 l -280,-296.6 306.2,-315.8 h -139.1"
         style="fill:#100f0d;fill-opacity:1;fill-rule:nonzero;stroke:none"
         id="path80" />
      <path
         d="m 45555.8,19547.9 h -450.6 v -92.7 h 450.6 v 92.7"
         style="fill:#100f0d;fill-opacity:1;fill-rule:nonzero;stroke:none"
         id="path82" />
      <path
         d="m 45206.7,19029.1 v 171.5 h 334.3 v 91 h -435.8 v -356.1 h 455.9 v 93.6 h -354.4"
         style="fill:#100f0d;fill-opacity:1;fill-rule:nonzero;stroke:none"
         id="path84" />
      <path
         d="m 46318,19241.7 c 0,133.9 -91,226.6 -221.4,226.6 H 45954 v -453.2 h 142.6 c 131.3,0 221.4,92.7 221.4,226.6 z m 86.6,0 c 0,-182.9 -125.1,-306.2 -308,-306.2 h -227.5 v 612.4 h 227.5 c 182.9,0 308,-123.3 308,-306.2"
         style="fill:#100f0d;fill-opacity:1;fill-rule:nonzero;stroke:none"
         id="path86" />
      <path
         d="m 46506.1,19547.9 h 84.9 v -612.4 h -84.9 v 612.4"
         style="fill:#100f0d;fill-opacity:1;fill-rule:nonzero;stroke:none"
         id="path88" />
      <path
         d="m 47252.5,19275.8 v -252 c -68.2,-68.2 -147,-100.6 -244.1,-100.6 -189,0 -315,127.8 -315,318.5 0,187.2 131.2,318.5 320.2,318.5 86.7,0 166.3,-33.3 225.8,-93.6 l -55.1,-56.9 c -43.8,44.6 -107.7,70 -170.7,70 -138.2,0 -234.5,-97.1 -234.5,-238 0,-144.4 91,-238 229.3,-238 64.7,0 117.2,17.5 164.5,56 v 139.1 h -181.1 v 77 h 260.7"
         style="fill:#100f0d;fill-opacity:1;fill-rule:nonzero;stroke:none"
         id="path90" />
      <path
         d="m 47363.7,19547.9 h 84.8 v -612.4 h -84.8 v 612.4"
         style="fill:#100f0d;fill-opacity:1;fill-rule:nonzero;stroke:none"
         id="path92" />
      <path
         d="m 48019.9,19468.3 h -205.6 v -532.8 h -84 v 532.8 h -205.6 v 79.6 h 495.2 v -79.6"
         style="fill:#100f0d;fill-opacity:1;fill-rule:nonzero;stroke:none"
         id="path94" />
      <path
         d="m 48158.2,19148.1 h 273 l -136.5,311.5 z m 308,-78.8 h -343 l -58.6,-133.8 h -92.8 l 274.8,612.4 h 96.2 l 274.8,-612.4 h -92.8 l -58.6,133.8"
         style="fill:#100f0d;fill-opacity:1;fill-rule:nonzero;stroke:none"
         id="path96" />
      <path
         d="m 48689.4,19547.9 h 84.8 v -532.8 h 330.8 v -79.6 h -415.6 v 612.4"
         style="fill:#100f0d;fill-opacity:1;fill-rule:nonzero;stroke:none"
         id="path98" />
      <path
         d="m 41121.2,6211.7 h -184.7 v -215.2 h 184.7 c 72.6,0 116.3,40.2 116.3,107.6 0,66.5 -43.7,107.6 -116.3,107.6 z m -59.5,-308.9 h -124.3 V 5693.7 H 40835 v 612.5 h 287 c 131.3,0 217,-80.5 217,-202.1 0,-101.5 -60.3,-174.1 -158.3,-195.1 l 186.3,-215.3 h -127.7 l -177.6,209.1"
         style="fill:#1b1918;fill-opacity:1;fill-rule:nonzero;stroke:none"
         id="path100" />
      <path
         d="m 41899.1,6306.2 h -450.7 v -92.7 h 450.7 v 92.7"
         style="fill:#1b1918;fill-opacity:1;fill-rule:nonzero;stroke:none"
         id="path102" />
      <path
         d="m 41549.9,5787.3 v 171.5 h 334.3 v 91 h -435.8 v -356.1 h 455.9 v 93.6 h -354.4"
         style="fill:#1b1918;fill-opacity:1;fill-rule:nonzero;stroke:none"
         id="path104" />
      <path
         d="m 42559.7,6306.2 -252.9,-612.5 h -110.2 l -253.8,612.5 h 110.3 l 103.2,-254.6 94.5,-238.9 198.7,493.5 h 110.2"
         style="fill:#1b1918;fill-opacity:1;fill-rule:nonzero;stroke:none"
         id="path106" />
      <path
         d="m 43100.5,6000 c 0,133.8 -85.8,224.8 -211.8,224.8 -126.8,0 -212.6,-91 -212.6,-224.8 0,-133.9 85.8,-224.9 212.6,-224.9 126,0 211.8,91 211.8,224.9 z m -527.6,0 c 0,190.7 126.8,319.3 315.8,319.3 188.1,0 315,-128.6 315,-319.3 0,-190.8 -126.9,-319.4 -315,-319.4 -189,0 -315.8,128.6 -315.8,319.4"
         style="fill:#1b1918;fill-opacity:1;fill-rule:nonzero;stroke:none"
         id="path108" />
      <path
         d="m 43667.5,5693.7 -264.2,274.8 V 5693.7 H 43300 v 612.5 h 103.3 v -261.6 l 244.1,261.6 h 133 l -280,-296.6 306.2,-315.9 h -139.1"
         style="fill:#1b1918;fill-opacity:1;fill-rule:nonzero;stroke:none"
         id="path110" />
      <path
         d="m 44304.5,6306.2 h -450.6 v -92.7 h 450.6 v 92.7"
         style="fill:#1b1918;fill-opacity:1;fill-rule:nonzero;stroke:none"
         id="path112" />
      <path
         d="m 43955.4,5787.3 v 171.5 h 334.3 v 91 h -435.8 v -356.1 h 455.9 v 93.6 h -354.4"
         style="fill:#1b1918;fill-opacity:1;fill-rule:nonzero;stroke:none"
         id="path114" />
      <path
         d="m 45066.7,6000 c 0,133.8 -91,226.6 -221.4,226.6 h -142.6 v -453.3 h 142.6 c 131.3,0 221.4,92.8 221.4,226.7 z m 86.6,0 c 0,-182.9 -125.1,-306.3 -308,-306.3 h -227.5 v 612.5 h 227.5 c 182.9,0 308,-123.4 308,-306.2"
         style="fill:#1b1918;fill-opacity:1;fill-rule:nonzero;stroke:none"
         id="path116" />
      <path
         d="m 45254.8,6306.2 h 84.9 v -612.5 h -84.9 v 612.5"
         style="fill:#1b1918;fill-opacity:1;fill-rule:nonzero;stroke:none"
         id="path118" />
      <path
         d="m 46001.2,6034.1 v -252 c -68.3,-68.3 -147,-100.6 -244.1,-100.6 -189,0 -315,127.7 -315,318.5 0,187.2 131.2,318.5 320.2,318.5 86.7,0 166.3,-33.3 225.8,-93.7 l -55.2,-56.8 c -43.7,44.6 -107.6,70 -170.6,70 -138.2,0 -234.5,-97.2 -234.5,-238 0,-144.4 91,-238 229.3,-238 64.7,0 117.2,17.5 164.5,56 v 139.1 h -181.1 v 77 h 260.7"
         style="fill:#1b1918;fill-opacity:1;fill-rule:nonzero;stroke:none"
         id="path120" />
      <path
         d="m 46112.4,6306.2 h 84.8 v -612.5 h -84.8 v 612.5"
         style="fill:#1b1918;fill-opacity:1;fill-rule:nonzero;stroke:none"
         id="path122" />
      <path
         d="M 46768.6,6226.6 H 46563 v -532.9 h -84 v 532.9 h -205.6 v 79.6 h 495.2 v -79.6"
         style="fill:#1b1918;fill-opacity:1;fill-rule:nonzero;stroke:none"
         id="path124" />
      <path
         d="m 46906.9,5906.3 h 273 l -136.5,311.5 z m 308,-78.7 h -343 l -58.6,-133.9 h -92.8 l 274.8,612.5 h 96.2 l 274.8,-612.5 h -92.8 l -58.6,133.9"
         style="fill:#1b1918;fill-opacity:1;fill-rule:nonzero;stroke:none"
         id="path126" />
      <path
         d="m 47438,6306.2 h 84.9 v -532.9 h 330.8 v -79.6 H 47438 v 612.5"
         style="fill:#1b1918;fill-opacity:1;fill-rule:nonzero;stroke:none"
         id="path128" />
      <path
         d="m 27241.5,6728.1 h -1445.6 l -680,1167.9 h 1445.5 l 33.6,-57.7 646.5,-1110.2"
         style="fill:#1b1918;fill-opacity:1;fill-rule:nonzero;stroke:none"
         id="path130" />
      <path
         d="M 27209.3,6416.6 25862.1,4108 25171.4,5338.7 h -0.2 l -1.9,3.5 613.7,1074.4 h 1426.3"
         style="fill:#1b1918;fill-opacity:1;fill-rule:nonzero;stroke:none"
         id="path132" />
      <path
         d="m 28764.6,4112.2 -1083.9,-8.3 -11.6,19.9 -707.3,1214.9 -12.1,21 544.9,933.7 556,-954.7 142.5,-244.8 571.5,-981.7"
         style="fill:#1b1918;fill-opacity:1;fill-rule:nonzero;stroke:none"
         id="path134" />
      <path
         d="m 29012.8,6611.8 v -0.2 l -8.7,-15.8 -639.3,-1184 -1446.5,2484.2 h 1352.2 c 22.9,-39.6 49.3,-85.7 79.2,-137.6 154.1,-267.3 396.6,-686.6 663.1,-1146.6"
         style="fill:#1b1918;fill-opacity:1;fill-rule:nonzero;stroke:none"
         id="path136" />
      <g
         id="g138">
        <g
           id="g140"
           clip-path="url(#clipPath144)">
          <path
             d="M 16000,13241.7 H 0 v 12000 h 16000 v -12000"
             style="fill:url(#linearGradient158);fill-opacity:1;fill-rule:nonzero;stroke:none"
             id="path160" />
        </g>
      </g>
      <g
         id="g162">
        <g
           id="g164"
           clip-path="url(#clipPath168)">
          <path
             d="m 4411.16,19417.9 h -349.85 l -164.54,282.7 h 349.8 l 8.14,-14 156.45,-268.7"
             style="fill:url(#linearGradient176);fill-opacity:1;fill-rule:nonzero;stroke:none"
             id="path178" />
        </g>
      </g>
      <g
         id="g180">
        <g
           id="g182"
           clip-path="url(#clipPath186)">
          <path
             d="m 4403.37,19342.5 -326.02,-558.6 -167.16,297.8 h -0.05 l -0.45,0.8 148.51,260 h 345.17"
             style="fill:url(#linearGradient194);fill-opacity:1;fill-rule:nonzero;stroke:none"
             id="path196" />
        </g>
      </g>
      <g
         id="g198">
        <g
           id="g200"
           clip-path="url(#clipPath204)">
          <path
             d="m 4779.76,18784.9 -262.3,-2.1 -2.82,4.9 -171.17,294 -2.92,5.1 131.88,225.9 134.54,-231 34.48,-59.3 138.31,-237.5"
             style="fill:url(#linearGradient212);fill-opacity:1;fill-rule:nonzero;stroke:none"
             id="path214" />
        </g>
      </g>
      <g
         id="g216">
        <g
           id="g218"
           clip-path="url(#clipPath222)">
          <path
             d="m 4839.81,19389.8 v -0.1 l -2.1,-3.8 -154.7,-286.5 -350.05,601.2 h 327.23 c 5.53,-9.6 11.91,-20.8 19.15,-33.4 37.29,-64.6 95.99,-166.1 160.47,-277.4"
             style="fill:url(#linearGradient230);fill-opacity:1;fill-rule:nonzero;stroke:none"
             id="path232" />
        </g>
      </g>
      <path
         d="M 5370.72,19453.4 H 5186.1 v -215.2 h 184.62 c 72.63,0 116.38,40.3 116.38,107.6 0,66.5 -43.75,107.6 -116.38,107.6 z m -59.49,-308.8 h -124.25 v -209.1 H 5084.6 v 612.4 h 287 c 131.25,0 216.99,-80.5 216.99,-202.1 0,-101.5 -60.37,-174.1 -158.37,-195.1 l 186.38,-215.2 h -127.75 l -177.62,209.1"
         style="fill:#ffffff;fill-opacity:1;fill-rule:nonzero;stroke:none"
         id="path234" />
      <path
         d="M 6148.62,19547.9 H 5698 v -92.7 h 450.62 v 92.7"
         style="fill:#ffffff;fill-opacity:1;fill-rule:nonzero;stroke:none"
         id="path236" />
      <path
         d="m 5799.5,19029.1 v 171.5 h 334.25 v 91 H 5698 v -356.1 h 455.87 v 93.6 H 5799.5"
         style="fill:#ffffff;fill-opacity:1;fill-rule:nonzero;stroke:none"
         id="path238" />
      <path
         d="m 6809.26,19547.9 -252.87,-612.4 h -110.25 l -253.74,612.4 h 110.24 l 103.25,-254.6 94.5,-238.8 198.63,493.4 h 110.24"
         style="fill:#ffffff;fill-opacity:1;fill-rule:nonzero;stroke:none"
         id="path240" />
      <path
         d="m 7350.04,19241.7 c 0,133.9 -85.75,224.9 -211.74,224.9 -126.87,0 -212.62,-91 -212.62,-224.9 0,-133.9 85.75,-224.9 212.62,-224.9 125.99,0 211.74,91 211.74,224.9 z m -527.62,0 c 0,190.7 126.88,319.4 315.88,319.4 188.12,0 314.99,-128.7 314.99,-319.4 0,-190.7 -126.87,-319.4 -314.99,-319.4 -189,0 -315.88,128.7 -315.88,319.4"
         style="fill:#ffffff;fill-opacity:1;fill-rule:nonzero;stroke:none"
         id="path242" />
      <path
         d="m 7917.08,18935.5 -264.25,274.7 v -274.7 h -103.25 v 612.4 h 103.25 v -261.6 l 244.12,261.6 h 133 l -279.99,-296.6 306.24,-315.8 h -139.12"
         style="fill:#ffffff;fill-opacity:1;fill-rule:nonzero;stroke:none"
         id="path244" />
      <path
         d="m 8554.1,19547.9 h -450.61 v -92.7 h 450.61 v 92.7"
         style="fill:#ffffff;fill-opacity:1;fill-rule:nonzero;stroke:none"
         id="path246" />
      <path
         d="m 8204.99,19029.1 v 171.5 h 334.24 v 91 h -435.74 v -356.1 h 455.87 v 93.6 h -354.37"
         style="fill:#ffffff;fill-opacity:1;fill-rule:nonzero;stroke:none"
         id="path248" />
      <path
         d="m 9316.26,19241.7 c 0,133.9 -91.01,226.6 -221.38,226.6 h -142.62 v -453.2 h 142.62 c 131.25,0 221.38,92.7 221.38,226.6 z m 86.61,0 c 0,-182.9 -125.12,-306.2 -307.99,-306.2 h -227.5 v 612.4 h 227.5 c 182.87,0 307.99,-123.3 307.99,-306.2"
         style="fill:#ffffff;fill-opacity:1;fill-rule:nonzero;stroke:none"
         id="path250" />
      <path
         d="m 9504.39,19547.9 h 84.89 v -612.4 h -84.89 v 612.4"
         style="fill:#ffffff;fill-opacity:1;fill-rule:nonzero;stroke:none"
         id="path252" />
      <path
         d="m 10250.8,19275.8 v -252 c -68.3,-68.2 -147,-100.6 -244.1,-100.6 -189.05,0 -315.05,127.8 -315.05,318.5 0,187.2 131.25,318.5 320.25,318.5 86.6,0 166.2,-33.3 225.7,-93.6 l -55.1,-56.9 c -43.7,44.6 -107.6,70 -170.6,70 -138.25,0 -234.5,-97.1 -234.5,-238 0,-144.4 91,-238 229.3,-238 64.7,0 117.2,17.5 164.5,56 v 139.1 h -181.17 v 77 h 260.77"
         style="fill:#ffffff;fill-opacity:1;fill-rule:nonzero;stroke:none"
         id="path254" />
      <path
         d="m 10361.9,19547.9 h 84.9 v -612.4 h -84.9 v 612.4"
         style="fill:#ffffff;fill-opacity:1;fill-rule:nonzero;stroke:none"
         id="path256" />
      <path
         d="m 11018.2,19468.3 h -205.6 v -532.8 h -84 v 532.8 h -205.7 v 79.6 h 495.3 v -79.6"
         style="fill:#ffffff;fill-opacity:1;fill-rule:nonzero;stroke:none"
         id="path258" />
      <path
         d="m 11156.5,19148.1 h 273 l -136.6,311.5 z m 308,-78.8 h -343 l -58.7,-133.8 h -92.7 l 274.7,612.4 h 96.3 l 274.7,-612.4 h -92.7 l -58.6,133.8"
         style="fill:#ffffff;fill-opacity:1;fill-rule:nonzero;stroke:none"
         id="path260" />
      <path
         d="m 11687.6,19547.9 h 84.9 v -532.8 h 330.7 v -79.6 h -415.6 v 612.4"
         style="fill:#ffffff;fill-opacity:1;fill-rule:nonzero;stroke:none"
         id="path262" />
      <g
         id="g264">
        <g
           id="g266"
           clip-path="url(#clipPath270)">
          <path
             d="m 23475.5,19417.9 h -349.8 l -164.6,282.7 h 349.8 l 8.2,-14 156.4,-268.7"
             style="fill:url(#linearGradient278);fill-opacity:1;fill-rule:nonzero;stroke:none"
             id="path280" />
        </g>
      </g>
      <g
         id="g282">
        <g
           id="g284"
           clip-path="url(#clipPath288)">
          <path
             d="m 23467.7,19342.5 -326,-558.6 -167.2,297.8 v 0 l -0.5,0.8 148.5,260 h 345.2"
             style="fill:url(#linearGradient296);fill-opacity:1;fill-rule:nonzero;stroke:none"
             id="path298" />
        </g>
      </g>
      <g
         id="g300">
        <g
           id="g302"
           clip-path="url(#clipPath306)">
          <path
             d="m 23844.1,18784.9 -262.3,-2.1 -2.8,4.9 -171.2,294 -2.9,5.1 131.9,225.9 134.5,-231 34.5,-59.3 138.3,-237.5"
             style="fill:url(#linearGradient314);fill-opacity:1;fill-rule:nonzero;stroke:none"
             id="path316" />
        </g>
      </g>
      <g
         id="g318">
        <g
           id="g320"
           clip-path="url(#clipPath324)">
          <path
             d="m 23904.2,19389.8 v -0.1 l -2.1,-3.8 -154.7,-286.5 -350.1,601.2 h 327.2 c 5.6,-9.6 11.9,-20.8 19.2,-33.4 37.3,-64.6 96,-166.1 160.5,-277.4"
             style="fill:url(#linearGradient332);fill-opacity:1;fill-rule:nonzero;stroke:none"
             id="path334" />
        </g>
      </g>
      <path
         d="m 24435.1,19453.4 h -184.7 v -215.2 h 184.7 c 72.6,0 116.3,40.3 116.3,107.6 0,66.5 -43.7,107.6 -116.3,107.6 z m -59.5,-308.8 h -124.3 v -209.1 h -102.4 v 612.4 h 287 c 131.3,0 217,-80.5 217,-202.1 0,-101.5 -60.3,-174.1 -158.3,-195.1 l 186.3,-215.2 h -127.7 l -177.6,209.1"
         style="fill:#1b1918;fill-opacity:1;fill-rule:nonzero;stroke:none"
         id="path336" />
      <g
         id="g338">
        <g
           id="g340"
           clip-path="url(#clipPath344)">
          <path
             d="m 25213,19547.9 h -450.6 v -92.7 h 450.6 v 92.7"
             style="fill:url(#linearGradient352);fill-opacity:1;fill-rule:nonzero;stroke:none"
             id="path354" />
        </g>
      </g>
      <path
         d="m 24863.8,19029.1 v 171.5 h 334.3 v 91 h -435.7 v -356.1 h 455.8 v 93.6 h -354.4"
         style="fill:#1b1918;fill-opacity:1;fill-rule:nonzero;stroke:none"
         id="path356" />
      <path
         d="m 25873.6,19547.9 -252.9,-612.4 h -110.2 l -253.8,612.4 h 110.3 l 103.2,-254.6 94.5,-238.8 198.7,493.4 h 110.2"
         style="fill:#1b1918;fill-opacity:1;fill-rule:nonzero;stroke:none"
         id="path358" />
      <path
         d="m 26414.4,19241.7 c 0,133.9 -85.8,224.9 -211.8,224.9 -126.8,0 -212.6,-91 -212.6,-224.9 0,-133.9 85.8,-224.9 212.6,-224.9 126,0 211.8,91 211.8,224.9 z m -527.6,0 c 0,190.7 126.8,319.4 315.8,319.4 188.2,0 315,-128.7 315,-319.4 0,-190.7 -126.8,-319.4 -315,-319.4 -189,0 -315.8,128.7 -315.8,319.4"
         style="fill:#1b1918;fill-opacity:1;fill-rule:nonzero;stroke:none"
         id="path360" />
      <path
         d="m 26981.4,18935.5 -264.2,274.7 v -274.7 h -103.3 v 612.4 h 103.3 v -261.6 l 244.1,261.6 h 133 l -280,-296.6 306.2,-315.8 h -139.1"
         style="fill:#1b1918;fill-opacity:1;fill-rule:nonzero;stroke:none"
         id="path362" />
      <g
         id="g364">
        <g
           id="g366"
           clip-path="url(#clipPath370)">
          <path
             d="m 27618.5,19547.9 h -450.7 v -92.7 h 450.7 v 92.7"
             style="fill:url(#linearGradient378);fill-opacity:1;fill-rule:nonzero;stroke:none"
             id="path380" />
        </g>
      </g>
      <path
         d="m 27269.3,19029.1 v 171.5 h 334.3 v 91 h -435.8 v -356.1 h 455.9 v 93.6 h -354.4"
         style="fill:#1b1918;fill-opacity:1;fill-rule:nonzero;stroke:none"
         id="path382" />
      <path
         d="m 28380.6,19241.7 c 0,133.9 -91,226.6 -221.4,226.6 h -142.6 v -453.2 h 142.6 c 131.3,0 221.4,92.7 221.4,226.6 z m 86.6,0 c 0,-182.9 -125.1,-306.2 -308,-306.2 h -227.5 v 612.4 h 227.5 c 182.9,0 308,-123.3 308,-306.2"
         style="fill:#1b1918;fill-opacity:1;fill-rule:nonzero;stroke:none"
         id="path384" />
      <path
         d="m 28568.8,19547.9 h 84.8 v -612.4 h -84.8 v 612.4"
         style="fill:#1b1918;fill-opacity:1;fill-rule:nonzero;stroke:none"
         id="path386" />
      <path
         d="m 29315.1,19275.8 v -252 c -68.2,-68.2 -147,-100.6 -244.1,-100.6 -189,0 -315,127.8 -315,318.5 0,187.2 131.2,318.5 320.2,318.5 86.7,0 166.3,-33.3 225.8,-93.6 l -55.1,-56.9 c -43.8,44.6 -107.7,70 -170.7,70 -138.2,0 -234.5,-97.1 -234.5,-238 0,-144.4 91,-238 229.3,-238 64.7,0 117.2,17.5 164.5,56 v 139.1 h -181.1 v 77 h 260.7"
         style="fill:#1b1918;fill-opacity:1;fill-rule:nonzero;stroke:none"
         id="path388" />
      <path
         d="m 29426.3,19547.9 h 84.9 v -612.4 h -84.9 v 612.4"
         style="fill:#1b1918;fill-opacity:1;fill-rule:nonzero;stroke:none"
         id="path390" />
      <path
         d="m 30082.5,19468.3 h -205.6 v -532.8 h -84 v 532.8 h -205.6 v 79.6 h 495.2 v -79.6"
         style="fill:#1b1918;fill-opacity:1;fill-rule:nonzero;stroke:none"
         id="path392" />
      <path
         d="m 30220.8,19148.1 h 273 l -136.5,311.5 z m 308,-78.8 h -343 l -58.6,-133.8 h -92.8 l 274.8,612.4 h 96.2 l 274.8,-612.4 h -92.8 l -58.6,133.8"
         style="fill:#1b1918;fill-opacity:1;fill-rule:nonzero;stroke:none"
         id="path394" />
      <path
         d="m 30752,19547.9 h 84.8 v -532.8 h 330.8 v -79.6 H 30752 v 612.4"
         style="fill:#1b1918;fill-opacity:1;fill-rule:nonzero;stroke:none"
         id="path396" />
    </g>
  </g>
</svg>
