<?xml version="1.0" encoding="UTF-8" standalone="no"?>
<!-- Created with Inkscape (http://www.inkscape.org/) -->

<svg
   version="1.1"
   id="svg2"
   width="2133.3333"
   height="1600"
   viewBox="0 0 2133.3333 1600"
   sodipodi:docname="Revoke Degital logo.ai"
   xmlns:inkscape="http://www.inkscape.org/namespaces/inkscape"
   xmlns:sodipodi="http://sodipodi.sourceforge.net/DTD/sodipodi-0.dtd"
   xmlns="http://www.w3.org/2000/svg"
   xmlns:svg="http://www.w3.org/2000/svg">
  <defs
     id="defs6">
    <linearGradient
       x1="0"
       y1="0"
       x2="1"
       y2="0"
       gradientUnits="userSpaceOnUse"
       gradientTransform="matrix(1685.7393,-1218.5217,-1218.5217,-1685.7393,-54.176849,1217.4342)"
       spreadMethod="pad"
       id="linearGradient34">
      <stop
         style="stop-opacity:1;stop-color:#77f963"
         offset="0"
         id="stop22" />
      <stop
         style="stop-opacity:1;stop-color:#000000"
         offset="0.304469"
         id="stop24" />
      <stop
         style="stop-opacity:1;stop-color:#000000"
         offset="0.501969"
         id="stop26" />
      <stop
         style="stop-opacity:1;stop-color:#000000"
         offset="0.656425"
         id="stop28" />
      <stop
         style="stop-opacity:1;stop-color:#43c170"
         offset="0.994413"
         id="stop30" />
      <stop
         style="stop-opacity:1;stop-color:#43c170"
         offset="1"
         id="stop32" />
    </linearGradient>
    <linearGradient
       x1="0"
       y1="0"
       x2="1"
       y2="0"
       gradientUnits="userSpaceOnUse"
       gradientTransform="matrix(51.439232,0,0,-51.439232,389.67697,631.75311)"
       spreadMethod="pad"
       id="linearGradient56">
      <stop
         style="stop-opacity:1;stop-color:#77f963"
         offset="0"
         id="stop50" />
      <stop
         style="stop-opacity:1;stop-color:#43c170"
         offset="0.994413"
         id="stop52" />
      <stop
         style="stop-opacity:1;stop-color:#43c170"
         offset="1"
         id="stop54" />
    </linearGradient>
    <linearGradient
       x1="0"
       y1="0"
       x2="1"
       y2="0"
       gradientUnits="userSpaceOnUse"
       gradientTransform="matrix(49.368538,0,0,-49.368538,390.96863,582.14832)"
       spreadMethod="pad"
       id="linearGradient78">
      <stop
         style="stop-opacity:1;stop-color:#77f963"
         offset="0"
         id="stop72" />
      <stop
         style="stop-opacity:1;stop-color:#43c170"
         offset="0.994413"
         id="stop74" />
      <stop
         style="stop-opacity:1;stop-color:#43c170"
         offset="1"
         id="stop76" />
    </linearGradient>
    <linearGradient
       x1="0"
       y1="0"
       x2="1"
       y2="0"
       gradientUnits="userSpaceOnUse"
       gradientTransform="matrix(43.920513,0,0,-43.920513,434.0549,580.60791)"
       spreadMethod="pad"
       id="linearGradient100">
      <stop
         style="stop-opacity:1;stop-color:#77f963"
         offset="0"
         id="stop94" />
      <stop
         style="stop-opacity:1;stop-color:#43c170"
         offset="0.994413"
         id="stop96" />
      <stop
         style="stop-opacity:1;stop-color:#43c170"
         offset="1"
         id="stop98" />
    </linearGradient>
    <linearGradient
       x1="0"
       y1="0"
       x2="1"
       y2="0"
       gradientUnits="userSpaceOnUse"
       gradientTransform="matrix(50.68536,0,0,-50.68536,433.29602,615.82629)"
       spreadMethod="pad"
       id="linearGradient122">
      <stop
         style="stop-opacity:1;stop-color:#77f963"
         offset="0"
         id="stop116" />
      <stop
         style="stop-opacity:1;stop-color:#43c170"
         offset="0.994413"
         id="stop118" />
      <stop
         style="stop-opacity:1;stop-color:#43c170"
         offset="1"
         id="stop120" />
    </linearGradient>
    <clipPath
       clipPathUnits="userSpaceOnUse"
       id="clipPath132">
      <path
         d="M 0,1200 H 1600 V 0 H 0 Z"
         id="path130" />
    </clipPath>
  </defs>
  <sodipodi:namedview
     id="namedview4"
     pagecolor="#ffffff"
     bordercolor="#000000"
     borderopacity="0.25"
     inkscape:showpageshadow="2"
     inkscape:pageopacity="0.0"
     inkscape:pagecheckerboard="0"
     inkscape:deskcolor="#d1d1d1" />
  <g
     id="g8"
     inkscape:groupmode="layer"
     inkscape:label="Revoke Degital logo"
     transform="matrix(1.3333333,0,0,-1.3333333,0,1600)">
    <g
       id="g10">
      <g
         id="g12">
        <g
           id="g18">
          <g
             id="g20">
            <path
               d="M 0,0 H 1600 V 1200 H 0 Z"
               style="fill:url(#linearGradient34);stroke:none"
               id="path36" />
          </g>
        </g>
      </g>
    </g>
    <g
       id="g38">
      <g
         id="g40">
        <g
           id="g46">
          <g
             id="g48">
            <path
               d="m 441.116,617.621 h -34.985 l -16.454,28.265 h 34.98 l 0.814,-1.398 z"
               style="fill:url(#linearGradient56);stroke:none"
               id="path58" />
          </g>
        </g>
      </g>
    </g>
    <g
       id="g60">
      <g
         id="g62">
        <g
           id="g68">
          <g
             id="g70">
            <path
               d="m 440.337,610.082 -32.602,-55.867 -16.716,29.783 h -0.005 l -0.045,0.085 14.851,25.999 z"
               style="fill:url(#linearGradient78);stroke:none"
               id="path80" />
          </g>
        </g>
      </g>
    </g>
    <g
       id="g82">
      <g
         id="g84">
        <g
           id="g90">
          <g
             id="g92">
            <path
               d="m 477.976,554.315 -26.23,-0.201 -0.282,0.483 -17.117,29.401 -0.292,0.508 13.188,22.596 13.454,-23.104 3.448,-5.926 z"
               style="fill:url(#linearGradient100);stroke:none"
               id="path102" />
          </g>
        </g>
      </g>
    </g>
    <g
       id="g104">
      <g
         id="g106">
        <g
           id="g112">
          <g
             id="g114">
            <path
               d="m 433.296,645.886 35.005,-60.119 15.47,28.652 0.21,0.382 v 0.005 c -6.448,11.132 -12.318,21.28 -16.047,27.748 v 0 c -0.724,1.256 -1.362,2.372 -1.915,3.332 v 0 z"
               style="fill:url(#linearGradient122);stroke:none"
               id="path124" />
          </g>
        </g>
      </g>
    </g>
    <g
       id="g126">
      <g
         id="g128"
         clip-path="url(#clipPath132)">
        <g
           id="g134"
           transform="translate(537.0723,621.1748)">
          <path
             d="M 0,0 H -18.462 V -21.525 H 0 c 7.263,0 11.638,4.026 11.638,10.762 C 11.638,-4.113 7.263,0 0,0 M -5.95,-30.887 H -18.375 V -51.799 H -28.612 V 9.45 H 0.087 c 13.126,0 21.7,-8.05 21.7,-20.213 0,-10.15 -6.037,-17.412 -15.837,-19.511 L 24.587,-51.799 H 11.813 Z"
             style="fill:#ffffff;fill-opacity:1;fill-rule:nonzero;stroke:none"
             id="path136" />
        </g>
        <path
           d="M 614.862,630.625 H 569.8 v -9.274 h 45.062 z"
           style="fill:#ffffff;fill-opacity:1;fill-rule:nonzero;stroke:none"
           id="path138" />
        <g
           id="g140"
           transform="translate(579.9502,578.7383)">
          <path
             d="m 0,0 v 17.15 h 33.424 v 9.099 H -10.15 V -9.362 H 35.437 V 0 Z"
             style="fill:#ffffff;fill-opacity:1;fill-rule:nonzero;stroke:none"
             id="path142" />
        </g>
        <g
           id="g144"
           transform="translate(680.9263,630.6245)">
          <path
             d="M 0,0 -25.287,-61.249 H -36.312 L -61.687,0 h 11.025 l 10.325,-25.462 9.45,-23.886 L -11.024,0 Z"
             style="fill:#ffffff;fill-opacity:1;fill-rule:nonzero;stroke:none"
             id="path146" />
        </g>
        <g
           id="g148"
           transform="translate(735.0044,600)">
          <path
             d="m 0,0 c 0,13.387 -8.575,22.488 -21.175,22.488 -12.687,0 -21.262,-9.101 -21.262,-22.488 0,-13.388 8.575,-22.486 21.262,-22.486 C -8.575,-22.486 0,-13.388 0,0 m -52.762,0 c 0,19.074 12.687,31.937 31.587,31.937 18.812,0 31.5,-12.863 31.5,-31.937 0,-19.074 -12.688,-31.937 -31.5,-31.937 -18.9,0 -31.587,12.863 -31.587,31.937"
             style="fill:#ffffff;fill-opacity:1;fill-rule:nonzero;stroke:none"
             id="path150" />
        </g>
        <g
           id="g152"
           transform="translate(791.708,569.376)">
          <path
             d="M 0,0 -26.425,27.474 V 0 H -36.75 v 61.249 h 10.325 V 35.086 l 24.412,26.163 h 13.3 L -16.712,31.587 13.912,0 Z"
             style="fill:#ffffff;fill-opacity:1;fill-rule:nonzero;stroke:none"
             id="path154" />
        </g>
        <path
           d="m 855.41,630.625 h -45.062 v -9.274 h 45.062 z"
           style="fill:#ffffff;fill-opacity:1;fill-rule:nonzero;stroke:none"
           id="path156" />
        <g
           id="g158"
           transform="translate(820.499,578.7383)">
          <path
             d="m 0,0 v 17.15 h 33.424 v 9.099 H -10.15 V -9.362 H 35.437 V 0 Z"
             style="fill:#ffffff;fill-opacity:1;fill-rule:nonzero;stroke:none"
             id="path160" />
        </g>
        <g
           id="g162"
           transform="translate(931.626,600)">
          <path
             d="M 0,0 C 0,13.387 -9.101,22.662 -22.138,22.662 H -36.4 v -45.324 h 14.262 C -9.013,-22.662 0,-13.388 0,0 m 8.661,0 c 0,-18.287 -12.512,-30.624 -30.799,-30.624 h -22.75 v 61.249 h 22.75 C -3.851,30.625 8.661,18.288 8.661,0"
             style="fill:#ffffff;fill-opacity:1;fill-rule:nonzero;stroke:none"
             id="path164" />
        </g>
        <path
           d="m 950.439,630.625 h 8.488 v -61.249 h -8.488 z"
           style="fill:#ffffff;fill-opacity:1;fill-rule:nonzero;stroke:none"
           id="path166" />
        <g
           id="g168"
           transform="translate(1025.0771,603.4126)">
          <path
             d="m 0,0 v -25.2 c -6.825,-6.825 -14.7,-10.062 -24.412,-10.062 -18.901,0 -31.5,12.775 -31.5,31.849 0,18.726 13.125,31.85 32.024,31.85 8.663,0 16.625,-3.324 22.576,-9.362 l -5.513,-5.688 c -4.375,4.462 -10.763,7 -17.063,7 -13.824,0 -23.449,-9.712 -23.449,-23.8 0,-14.437 9.1,-23.799 22.925,-23.799 6.475,0 11.724,1.75 16.45,5.599 V -7.7 H -26.074 V 0 Z"
             style="fill:#ffffff;fill-opacity:1;fill-rule:nonzero;stroke:none"
             id="path170" />
        </g>
        <path
           d="m 1036.193,630.625 h 8.487 v -61.249 h -8.487 z"
           style="fill:#ffffff;fill-opacity:1;fill-rule:nonzero;stroke:none"
           id="path172" />
        <g
           id="g174"
           transform="translate(1101.8184,622.6616)">
          <path
             d="m 0,0 h -20.562 v -53.286 h -8.401 V 0 H -49.524 V 7.963 H 0 Z"
             style="fill:#ffffff;fill-opacity:1;fill-rule:nonzero;stroke:none"
             id="path176" />
        </g>
        <g
           id="g178"
           transform="translate(1115.6455,590.6377)">
          <path
             d="M 0,0 H 27.3 L 13.649,31.149 Z M 30.8,-7.875 H -3.5 l -5.862,-13.387 h -9.275 L 8.837,39.987 h 9.625 l 27.475,-61.249 h -9.276 z"
             style="fill:#ffffff;fill-opacity:1;fill-rule:nonzero;stroke:none"
             id="path180" />
        </g>
        <g
           id="g182"
           transform="translate(1168.7617,630.6245)">
          <path
             d="m 0,0 h 8.487 v -53.287 h 33.075 v -7.962 l -41.562,0 z"
             style="fill:#ffffff;fill-opacity:1;fill-rule:nonzero;stroke:none"
             id="path184" />
        </g>
      </g>
    </g>
  </g>
</svg>
