<svg width="410" height="80" viewBox="0 0 410 80" fill="none" xmlns="http://www.w3.org/2000/svg">
<path fill-rule="evenodd" clip-rule="evenodd" d="M125.91 20.3V15.3C125.91 14.6 126.41 14.1 127.11 14H148.91C149.61 14 150.11 14.5 150.11 15.2V15.3V19.5C149.81 20.7 149.31 21.7 148.51 22.6L137.21 39C141.51 38.8 145.81 39.7 149.61 41.7C150.31 42.1 150.71 42.8 150.71 43.6V48.9C150.71 49.6 150.21 50.1 149.61 50.1C149.41 50.1 149.31 50.1 149.11 50C141.91 46.2 133.31 46.2 126.11 50C125.31 50.4 124.61 49.6 124.61 48.8V43.8C124.51 42.6 124.81 41.4 125.41 40.4L138.51 21.3H127.21C126.51 21.5 125.91 21 125.91 20.3ZM37.4097 50.2C36.8097 50.2 36.2097 49.7 36.2097 49V14C36.2097 13.3 36.8097 12.7 37.5097 12.7H43.9097C44.6097 12.7 45.1097 13.2 45.2097 13.9V18.5H45.3097C46.5097 14.5 50.2097 11.9 54.3097 12C58.6097 12 61.3097 14 63.2097 18.5C65.2097 13.3 71.1097 10.7 76.3097 12.7C78.0097 13.3 79.5097 14.4 80.6097 15.8C82.8097 18.7 82.3097 23 82.3097 26.8V49C82.3097 49.7 81.7097 50.3 81.0097 50.3H74.1097C73.4097 50.3 72.9097 49.7 72.9097 49.1V30.5C73.0097 28.3 72.9097 26.1 72.7097 23.9C72.4097 22 70.6097 20.6 68.7097 20.9C66.9097 21 65.3097 22.1 64.6097 23.8C64.0097 26 63.8097 28.3 64.0097 30.5V49C64.0097 49.7 63.4097 50.3 62.7097 50.3H55.8097C55.1097 50.3 54.6097 49.7 54.6097 49.1V30.5C54.6097 26.6 55.2097 20.8 50.4097 20.8C45.5097 20.8 45.7097 26.4 45.7097 30.5V49C45.7097 49.7 45.1097 50.3 44.4097 50.3C44.4097 50.3 44.4097 50.3 44.3097 50.3H37.4097V50.2ZM168.21 12.1C178.41 12.1 183.91 20.6 183.91 31.5C183.91 42 177.81 50.3 168.21 50.3C158.21 50.3 152.71 41.8 152.71 31.1C152.71 20.4 158.21 12.1 168.21 12.1ZM162.81 30C162.81 34.2 162.81 43.2 168.21 43.2C173.61 43.2 173.81 36 173.81 31.5C173.91 28.4 173.61 25.4 172.81 22.4C172.41 20.3 170.41 18.9 168.31 19.1C163.11 19.1 162.81 25.8 162.81 30ZM197.41 50.2H191.11C190.51 50.2 190.01 49.6 190.01 49V14C190.11 13.3 190.61 12.8 191.21 12.9H197.11C197.61 12.9 198.11 13.3 198.21 13.9V19.2H198.31C200.11 14.4 202.61 12.2 207.01 12.2C210.01 12 212.81 13.6 214.41 16.3C216.11 19.1 216.11 23.8 216.11 27.2V49.3C216.01 49.9 215.51 50.4 214.91 50.4H208.51C207.91 50.4 207.41 49.9 207.41 49.3V30.4C207.41 26.5 207.81 21 203.41 21C201.81 21.1 200.41 22.2 199.81 23.8C199.01 25.9 198.71 28.2 198.81 30.4V49C198.71 49.7 198.11 50.3 197.41 50.2ZM115.11 49.7C114.71 50.1 114.01 50.1 113.51 49.9C112.01 48.7 110.71 47.2 109.71 45.4C107.01 48.7 102.91 50.5 98.6097 50.3C92.8097 50.3 88.5097 46.8 88.5097 39.9C88.4097 35.1 91.2097 30.8 95.7097 29C99.4097 27.4 104.51 27.1 108.41 26.7V25.8C108.61 24.1 108.31 22.5 107.61 21C106.71 19.8 105.21 19.2 103.81 19.3C101.21 19.1 98.9097 20.8 98.4097 23.3C98.3097 23.9 97.8097 24.4 97.2097 24.5L90.7097 23.8C90.1097 23.7 89.6097 23 89.8097 22.4C91.3097 14.5 98.4097 12.2 104.91 12.2C108.61 12.1 112.11 13.3 115.01 15.5C118.31 18.5 118.01 22.6 118.01 27V37.4C118.01 39.7 118.91 41.9 120.51 43.6C121.01 44.1 121.01 44.9 120.51 45.4C118.81 46.4 116.41 48.5 115.11 49.7ZM108.51 33.6V32.2C103.61 32.2 98.5097 33.2 98.5097 38.6C98.5097 41.4 100.01 43.2 102.61 43.2C104.61 43.1 106.41 42 107.31 40.3C108.31 38.2 108.71 35.9 108.51 33.6ZM26.6097 49.7C26.2097 50.1 25.5097 50.1 25.0097 49.9C23.5097 48.7 22.2097 47.1 21.2097 45.5C18.5097 48.8 14.4097 50.6 10.1097 50.4C4.40973 50.4 0.00972838 46.9 0.00972838 40C-0.190272 35.2 2.70973 30.9 7.20973 29.1C10.8097 27.5 15.9097 27.2 19.8097 26.8V25.9C20.0097 24.2 19.7097 22.6 19.0097 21.1C18.1097 19.9 16.7097 19.3 15.2097 19.4C12.7097 19.2 10.4097 20.9 9.80973 23.4C9.70973 24 9.30973 24.5 8.60973 24.6L2.10973 23.9C1.50973 23.8 1.10973 23.1 1.20973 22.5C2.70973 14.6 9.80972 12.3 16.2097 12.3C19.9097 12.2 23.4097 13.3 26.3097 15.6C29.6097 18.6 29.3097 22.7 29.3097 27.1V37.5C29.3097 39.8 30.2097 42 31.8097 43.7C32.3097 44.2 32.3097 44.9 31.8097 45.4C30.4097 46.4 27.9097 48.5 26.6097 49.7ZM20.0097 32.2C15.1097 32.2 10.0097 33.2 10.0097 38.6C10.0097 41.4 11.5097 43.2 14.1097 43.2C16.1097 43.1 17.9097 42 18.7097 40.3C19.8097 38.2 20.2097 35.9 20.0097 33.5V32.2ZM87.9097 79.4C66.8097 79.5 46.4097 71.3 30.7097 56.3C29.5097 55.2 30.6097 53.6 32.0097 54.5C49.5097 65 69.2097 70.6 89.4097 70.5C104.41 70.4 119.21 67.2 133.11 61.1C135.21 60.1 137.01 62.6 134.91 64.2C122.11 74.1 103.71 79.4 87.9097 79.4ZM139.81 58.2C138.21 56.1 128.91 57.2 124.71 57.7C123.41 57.8 123.21 56.7 124.41 55.9C131.81 50.6 143.91 52.1 145.31 53.9C146.71 55.7 144.91 68 138.01 73.9C136.91 74.8 135.91 74.3 136.41 73.1C137.91 69.2 141.41 60.3 139.81 58.2ZM353.01 44.4C354.31 43.5 355.01 42 355.01 40.5C355.01 39.5 354.61 38.4 353.91 37.7C352.71 36.7 351.21 36 349.71 35.6L343.41 33.3C337.91 31.4 335.21 28 335.21 23.4C335.11 20.5 336.51 17.7 338.91 15.9C341.71 13.9 345.21 12.9 348.71 13.1C351.91 13.1 355.11 13.7 358.11 14.7C358.61 14.8 359.01 15.1 359.41 15.4C359.71 15.8 359.81 16.3 359.81 16.8V18.7C359.81 19.5 359.51 20 358.81 20C358.21 20 357.61 19.8 357.11 19.6C354.51 18.9 351.81 18.5 349.11 18.5C344.41 18.5 342.01 20 342.01 23.1C341.91 24.2 342.41 25.3 343.21 26C344.61 27 346.21 27.8 347.91 28.3L353.81 30.4C356.11 31.2 358.31 32.6 360.01 34.3C361.31 35.9 362.01 38 362.01 40.1C362.11 43.2 360.71 46.2 358.11 48.1C355.11 50.2 351.41 51.3 347.61 51.1C343.81 51.2 340.01 50.5 336.41 49.1C335.91 48.9 335.51 48.7 335.21 48.3C335.01 47.9 334.81 47.4 334.91 46.9V44.9C334.91 44.1 335.21 43.6 335.81 43.6C336.41 43.7 337.11 43.8 337.71 44C341.01 45 344.41 45.5 347.81 45.5C349.41 45.9 351.41 45.4 353.01 44.4ZM320.41 14.5C320.31 13.8 320.81 13.1 321.51 13C321.61 13 321.71 13 321.81 13H326.01C326.71 12.9 327.31 13.4 327.41 14.1C327.41 14.2 327.41 14.3 327.41 14.5V48.6C327.51 49.3 327.01 50 326.31 50.1C326.21 50.1 326.11 50.1 325.91 50.1H323.01C322.61 50.1 322.21 50 321.91 49.8C321.61 49.5 321.41 49.1 321.31 48.7L320.81 46.1C316.91 49.3 312.11 51 307.01 51.2C304.11 51.4 301.21 50.3 299.11 48.3C297.21 46 296.21 43 296.41 40V14.5C296.31 13.8 296.81 13.1 297.51 13C297.61 13 297.71 13 297.81 13H302.01C302.71 12.9 303.31 13.4 303.41 14.1C303.41 14.2 303.41 14.3 303.41 14.5V37.7C303.21 39.8 303.81 41.8 304.91 43.5C306.11 44.9 307.91 45.6 309.71 45.4C313.41 45.3 317.11 44.1 320.11 41.9L320.41 14.5ZM281.71 50.2C281.01 50.3 280.31 49.8 280.21 49.1C280.21 49 280.21 48.9 280.21 48.7V25C280.31 23.1 279.91 21.2 278.81 19.6C277.71 18.4 276.11 17.7 274.41 17.9C270.61 18 266.91 19.1 263.71 21.2C263.71 21.6 263.71 21.9 263.71 22.3V48.8C263.81 49.5 263.31 50.2 262.61 50.3C262.51 50.3 262.41 50.3 262.21 50.3H257.91C257.21 50.4 256.51 49.9 256.41 49.2C256.41 49.1 256.41 49 256.41 48.8V25.1C256.51 23.2 256.11 21.3 255.01 19.7C253.91 18.5 252.31 17.8 250.61 18C246.81 18 243.11 19.1 240.01 21.2V48.8C240.11 49.5 239.61 50.2 238.91 50.3C238.81 50.3 238.71 50.3 238.51 50.3H234.21C233.51 50.4 232.81 49.9 232.81 49.2C232.81 49.1 232.81 49 232.81 48.8V14.7C232.71 14 233.21 13.4 233.91 13.2C234.01 13.2 234.11 13.2 234.31 13.2H237.51C237.91 13.2 238.31 13.3 238.61 13.5C238.91 13.8 239.11 14.2 239.21 14.6L239.61 16.9C243.51 13.9 248.31 12.3 253.21 12.1C257.71 12.1 260.71 13.8 262.41 17.3C266.51 14.1 271.51 12.3 276.81 12.1C279.61 11.9 282.41 13 284.51 14.9C286.41 17.2 287.41 20.1 287.21 23V48.7C287.31 49.4 286.81 50.1 286.11 50.2C286.01 50.2 285.91 50.2 285.71 50.2H281.71ZM392.91 22.1C391.11 24.1 390.21 27.4 390.21 31.9V32.8C390.21 37.2 391.11 40.4 392.91 42.4C395.21 44.6 398.31 45.8 401.41 45.5C403.61 45.5 405.81 45.1 407.91 44.5C408.31 44.4 408.61 44.3 409.01 44.3C409.61 44.3 409.91 44.8 409.91 45.7V47.6C409.91 48.1 409.81 48.6 409.61 49C409.31 49.4 408.91 49.6 408.41 49.8C405.81 50.9 403.01 51.4 400.21 51.3C394.51 51.3 390.21 49.7 387.21 46.4C384.21 43.2 382.71 38.5 382.71 32.3C382.71 26.1 384.21 21.5 387.31 18.1C390.81 14.6 395.51 12.8 400.41 13.1C403.01 13.1 405.61 13.6 408.01 14.5C408.41 14.6 408.81 14.9 409.11 15.2C409.31 15.6 409.51 16.1 409.41 16.7V18.6C409.41 19.6 409.11 20 408.51 20C408.11 20 407.71 19.9 407.31 19.8C405.41 19.2 403.31 18.9 401.31 18.9C397.61 19 394.71 20.1 392.91 22.1ZM374.41 15.1C375.11 15 375.71 15.5 375.81 16.2C375.81 16.3 375.81 16.4 375.81 16.5V49.8C375.91 50.5 375.41 51.1 374.71 51.2C374.61 51.2 374.51 51.2 374.31 51.2H370.11C369.41 51.3 368.81 50.8 368.71 50.1C368.71 50 368.71 49.9 368.71 49.8V16.5C368.61 15.8 369.11 15.2 369.71 15.1C369.81 15.1 369.91 15.1 370.11 15.1H374.41ZM375.61 1.2C377.21 3.1 377.21 5.90001 375.61 7.80001C373.71 9.40001 370.91 9.40001 369.01 7.80001C367.41 5.90001 367.41 3.1 369.01 1.2C370.91 -0.4 373.71 -0.4 375.61 1.2Z" fill="white"/>
</svg>
