<svg width="193" height="28" viewBox="0 0 193 28" fill="none" xmlns="http://www.w3.org/2000/svg">
<g clip-path="url(#clip0_65_4)">
<path d="M70.3428 25.7097H65.4507V8.35894H59.124V4.16558H76.6695V8.35894H70.3428V25.7097Z" fill="white"/>
<path d="M96.228 25.7095H91.3066V4.16553H96.228V25.7095Z" fill="white"/>
<path d="M183.064 21.4582H191.575V25.7102H178.144V4.16607H183.064V21.4582Z" fill="white"/>
<mask id="mask0_65_4" style="mask-type:luminance" maskUnits="userSpaceOnUse" x="-135" y="-377" width="817" height="1057">
<path d="M-134.838 679.768H681.167V-376.239H-134.838V679.768Z" fill="white"/>
</mask>
<g mask="url(#mask0_65_4)">
<path d="M112.611 4.16143H120.583C126.464 4.16143 132.316 7.27611 132.316 14.8748C132.316 22.0375 126.58 25.7056 120.874 25.7056H112.611V4.16143ZM117.386 21.4829H120.438C124.543 21.4829 127.279 18.9215 127.279 14.8455C127.279 10.9735 124.514 8.35479 120.554 8.35479H117.386V21.4829Z" fill="white"/>
</g>
<path d="M159.623 25.7097H165.032L156.156 4.16558H151.076L142.115 25.7097H147.377L148.965 21.459H158.05L159.623 25.7097ZM150.284 17.631L153.529 9.20561L156.744 17.631H150.284Z" fill="white"/>
<path d="M26.2239 7.30487L19.9185 13.6116L13.6118 7.30487L19.9185 1.00082L26.2239 7.30487Z" fill="white"/>
<path d="M26.2239 19.9174L19.9185 26.2241L13.6118 19.9174L19.9185 13.6107L26.2239 19.9174Z" fill="white"/>
<path d="M13.6121 7.30535L7.30537 13.6121L1 7.30535L7.30537 0.999982L13.6121 7.30535Z" fill="white"/>
<path d="M38.8352 7.30535L32.5299 13.6121L26.2231 7.30535L32.5299 0.999982L38.8352 7.30535Z" fill="white"/>
</g>
<defs>
<clipPath id="clip0_65_4">
<rect width="192.575" height="27.224" fill="white"/>
</clipPath>
</defs>
</svg>
